<svg width="795" height="193" viewBox="0 0 795 193" fill="none" xmlns="http://www.w3.org/2000/svg">
<path d="M341.634 167.317L341.479 101.947L309.416 155.799H298.054L266.148 103.348V167.317H242.49V58.3672H263.346L304.125 126.072L344.28 58.3672H364.981L365.292 167.317H341.634Z" fill="white"/>
<path d="M389.678 58.3672H414.892V167.317H389.678V58.3672Z" fill="white"/>
<path d="M539.204 58.3672V167.317H518.503L464.184 101.169V167.317H439.281V58.3672H460.137L514.301 124.515V58.3672H539.204Z" fill="white"/>
<path d="M637.137 111.13H660.172V155.332C654.257 159.794 647.409 163.218 639.627 165.605C631.845 167.991 624.011 169.186 616.125 169.186C604.815 169.186 594.646 166.798 585.619 162.025C576.592 157.148 569.484 150.456 564.296 141.947C559.212 133.335 556.67 123.634 556.67 112.843C556.67 102.052 559.212 92.4016 564.296 83.8931C569.484 75.2809 576.644 68.5883 585.775 63.8152C594.906 58.9384 605.178 56.5 616.592 56.5C626.138 56.5 634.802 58.1083 642.584 61.3249C650.366 64.5416 656.903 69.2108 662.195 75.3328L646.008 90.2744C638.226 82.0773 628.836 77.9787 617.837 77.9787C610.885 77.9787 604.711 79.4314 599.316 82.3367C593.92 85.242 589.718 89.3406 586.709 94.6324C583.7 99.9243 582.195 105.995 582.195 112.843C582.195 119.588 583.7 125.605 586.709 130.897C589.718 136.188 593.868 140.339 599.16 143.348C604.556 146.253 610.678 147.706 617.526 147.706C624.789 147.706 631.326 146.15 637.137 143.037V111.13Z" fill="white"/>
<path d="M734.89 169.186C723.58 169.186 713.36 166.746 704.229 161.869C695.202 156.993 688.094 150.3 682.906 141.792C677.822 133.179 675.279 123.531 675.279 112.843C675.279 102.156 677.822 92.5572 682.906 84.0487C688.094 75.4365 695.202 68.692 704.229 63.8152C713.36 58.9384 723.58 56.5 734.89 56.5C746.201 56.5 756.369 58.9384 765.396 63.8152C774.424 68.692 781.531 75.4365 786.719 84.0487C791.907 92.5572 794.502 102.156 794.502 112.843C794.502 123.531 791.907 133.179 786.719 141.792C781.531 150.3 774.424 156.993 765.396 161.869C756.369 166.746 746.201 169.186 734.89 169.186ZM734.89 147.706C741.324 147.706 747.134 146.253 752.322 143.348C757.51 140.339 761.557 136.188 764.463 130.897C767.472 125.605 768.976 119.588 768.976 112.843C768.976 106.099 767.472 100.079 764.463 94.7881C761.557 89.4962 757.51 85.3976 752.322 82.4923C747.134 79.4832 741.324 77.9787 734.89 77.9787C728.457 77.9787 722.647 79.4832 717.459 82.4923C712.27 85.3976 708.172 89.4962 705.163 94.7881C702.257 100.079 700.805 106.099 700.805 112.843C700.805 119.588 702.257 125.605 705.163 130.897C708.172 136.188 712.27 140.339 717.459 143.348C722.647 146.253 728.457 147.706 734.89 147.706Z" fill="white"/>
<path d="M173.401 112.839V0.484375L169.509 3.88906L136.435 11.6711L115.035 40.8541V112.839H173.401Z" fill="white"/>
<path fill-rule="evenodd" clip-rule="evenodd" d="M172.406 6.5351H173.567V0C125.639 0 87.0318 38.8324 87.0318 86.7353C87.0318 88.9007 87.1194 91.0462 87.2762 93.1718L63.3759 69.2844C58.0962 74.5613 54.0804 80.6181 51.2962 87.0782C48.7197 93.0578 47.212 99.3824 46.7725 105.771C45.6793 121.686 51.2035 137.97 63.3759 150.135C64.1717 150.931 64.9874 151.696 65.8178 152.434C48.5069 142.788 37.7133 124.963 36.6142 105.771H0.25C0.25 153.673 39.1039 192.506 87.0318 192.506C109.99 192.506 130.862 183.593 146.382 169.044C161.777 154.614 171.901 134.638 173.567 112.306H172.406C163.186 112.306 154.513 109.932 146.957 105.771C130.601 96.7646 119.492 79.3666 119.492 59.4199C119.492 30.2592 143.229 6.5351 172.406 6.5351Z" fill="#26C45E"/>
<path fill-rule="evenodd" clip-rule="evenodd" d="M173.402 56.4219V85.3808V88.5225C186.304 86.7846 198.17 77.5367 201.761 64.1847L173.402 56.4219Z" fill="#F85C08"/>
<path fill-rule="evenodd" clip-rule="evenodd" d="M173.402 6.55469V48.3324H212.211C212.211 26.4433 195.438 8.48388 174.039 6.55469" fill="#F85C08"/>
<path fill-rule="evenodd" clip-rule="evenodd" d="M152.239 26.4844C146.201 26.4844 141.307 31.3758 141.307 37.4098C141.307 43.4431 146.201 48.3345 152.239 48.3345C158.276 48.3345 163.17 43.4431 163.17 37.4098C163.17 31.3758 158.276 26.4844 152.239 26.4844Z" fill="#262943"/>
</svg>
